<svg xmlns="http://www.w3.org/2000/svg" width="128" height="128" fill="none"><path fill="#99E64D" d="M47.597 21.408c0 .96-.336 1.776-1.008 2.448-.64.64-1.44.96-2.4.96s-1.776-.32-2.448-.96c-.64-.672-.96-1.488-.96-2.448s.32-1.76.96-2.4C42.413 18.336 43.23 18 44.19 18c.96 0 1.76.336 2.4 1.008.672.64 1.007 1.44 1.007 2.4Zm0 10.56c0 .96-.336 1.776-1.008 2.448-.64.64-1.44.96-2.4.96s-1.776-.32-2.448-.96c-.64-.672-.96-1.488-.96-2.448s.32-1.76.96-2.4c.672-.672 1.488-1.008 2.448-1.008s1.76.336 2.4 1.008c.672.64 1.008 1.44 1.008 2.4Zm0 10.56c0 .96-.336 1.776-1.008 2.448-.64.64-1.44.96-2.4.96s-1.776-.32-2.448-.96c-.64-.672-.96-1.488-.96-2.448s.32-1.76.96-2.4c.672-.672 1.488-1.008 2.448-1.008s1.76.336 2.4 1.008c.672.64 1.008 1.44 1.008 2.4Zm0 10.56c0 .96-.336 1.76-1.008 2.4-.64.672-1.44 1.008-2.4 1.008s-1.776-.336-2.448-1.008c-.64-.64-.96-1.44-.96-2.4s.32-1.776.96-2.448c.672-.64 1.488-.96 2.448-.96s1.76.32 2.4.96c.672.672 1.008 1.488 1.008 2.448Z"/><path fill="#4DE673" d="M58.157 21.408c0 .96-.336 1.776-1.008 2.448-.64.64-1.44.96-2.4.96s-1.776-.32-2.448-.96c-.64-.672-.96-1.488-.96-2.448s.32-1.76.96-2.4C52.973 18.336 53.79 18 54.75 18c.96 0 1.76.336 2.4 1.008.672.64 1.007 1.44 1.007 2.4Zm0 10.56c0 .96-.336 1.776-1.008 2.448-.64.64-1.44.96-2.4.96s-1.776-.32-2.448-.96c-.64-.672-.96-1.488-.96-2.448s.32-1.76.96-2.4c.672-.672 1.488-1.008 2.448-1.008s1.76.336 2.4 1.008c.672.64 1.008 1.44 1.008 2.4Zm0 10.56c0 .96-.336 1.776-1.008 2.448-.64.64-1.44.96-2.4.96s-1.776-.32-2.448-.96c-.64-.672-.96-1.488-.96-2.448s.32-1.76.96-2.4c.672-.672 1.488-1.008 2.448-1.008s1.76.336 2.4 1.008c.672.64 1.008 1.44 1.008 2.4Zm0 10.56c0 .96-.336 1.76-1.008 2.4-.64.672-1.44 1.008-2.4 1.008s-1.776-.336-2.448-1.008c-.64-.64-.96-1.44-.96-2.4s.32-1.776.96-2.448c.672-.64 1.488-.96 2.448-.96s1.76.32 2.4.96c.672.672 1.008 1.488 1.008 2.448Z"/><path fill="#4D73E6" d="M86.939 21.408c0 .96-.336 1.776-1.008 2.448-.64.64-1.44.96-2.4.96s-1.777-.32-2.449-.96c-.64-.672-.96-1.488-.96-2.448s.32-1.76.96-2.4c.672-.672 1.489-1.008 2.449-1.008.96 0 1.76.336 2.4 1.008.672.64 1.008 1.44 1.008 2.4Zm0 10.56c0 .96-.336 1.776-1.008 2.448-.64.64-1.44.96-2.4.96s-1.777-.32-2.449-.96c-.64-.672-.96-1.488-.96-2.448s.32-1.76.96-2.4c.672-.672 1.489-1.008 2.449-1.008.96 0 1.76.336 2.4 1.008.672.64 1.008 1.44 1.008 2.4Zm0 10.56c0 .96-.336 1.776-1.008 2.448-.64.64-1.44.96-2.4.96s-1.777-.32-2.449-.96c-.64-.672-.96-1.488-.96-2.448s.32-1.76.96-2.4c.672-.672 1.489-1.008 2.449-1.008.96 0 1.76.336 2.4 1.008.672.64 1.008 1.44 1.008 2.4Zm0 10.56c0 .96-.336 1.76-1.008 2.4-.64.672-1.44 1.008-2.4 1.008s-1.777-.336-2.449-1.008c-.64-.64-.96-1.44-.96-2.4s.32-1.776.96-2.448c.672-.64 1.489-.96 2.449-.96.96 0 1.76.32 2.4.96.672.672 1.008 1.488 1.008 2.448Z"/><path fill="#4DE6E6" d="M76.379 21.408c0 .96-.337 1.776-1.008 2.448-.64.64-1.44.96-2.4.96s-1.776-.32-2.449-.96c-.64-.672-.96-1.488-.96-2.448s.32-1.76.96-2.4C71.194 18.336 72.01 18 72.97 18s1.76.336 2.4 1.008c.672.64 1.009 1.44 1.009 2.4Zm0 10.56c0 .96-.337 1.776-1.008 2.448-.64.64-1.44.96-2.4.96s-1.776-.32-2.449-.96c-.64-.672-.96-1.488-.96-2.448s.32-1.76.96-2.4c.672-.672 1.488-1.008 2.448-1.008s1.76.336 2.4 1.008c.672.64 1.009 1.44 1.009 2.4Zm0 10.56c0 .96-.337 1.776-1.008 2.448-.64.64-1.44.96-2.4.96s-1.776-.32-2.449-.96c-.64-.672-.96-1.488-.96-2.448s.32-1.76.96-2.4c.672-.672 1.488-1.008 2.448-1.008s1.76.336 2.4 1.008c.672.64 1.009 1.44 1.009 2.4Zm0 10.56c0 .96-.337 1.76-1.008 2.4-.64.672-1.44 1.008-2.4 1.008s-1.776-.336-2.449-1.008c-.64-.64-.96-1.44-.96-2.4s.32-1.776.96-2.448c.672-.64 1.488-.96 2.448-.96s1.76.32 2.4.96c.672.672 1.009 1.488 1.009 2.448Z"/><path fill="#E64DBF" d="M115.72 31.968c0 .96-.336 1.776-1.008 2.448-.64.64-1.44.96-2.4.96s-1.776-.32-2.448-.96c-.64-.672-.96-1.488-.96-2.448s.32-1.76.96-2.4c.672-.672 1.488-1.008 2.448-1.008s1.76.336 2.4 1.008c.672.64 1.008 1.44 1.008 2.4Zm0 10.56c0 .96-.336 1.776-1.008 2.448-.64.64-1.44.96-2.4.96s-1.776-.32-2.448-.96c-.64-.672-.96-1.488-.96-2.448s.32-1.76.96-2.4c.672-.672 1.488-1.008 2.448-1.008s1.76.336 2.4 1.008c.672.64 1.008 1.44 1.008 2.4Zm0 10.56c0 .96-.336 1.76-1.008 2.4-.64.672-1.44 1.008-2.4 1.008s-1.776-.336-2.448-1.008c-.64-.64-.96-1.44-.96-2.4s.32-1.776.96-2.448c.672-.64 1.488-.96 2.448-.96s1.76.32 2.4.96c.672.672 1.008 1.488 1.008 2.448Z"/><path fill="#994DE6" d="M105.16 21.408c0 .96-.336 1.776-1.008 2.448-.64.64-1.44.96-2.4.96s-1.776-.32-2.448-.96c-.64-.672-.96-1.488-.96-2.448s.32-1.76.96-2.4c.672-.672 1.488-1.008 2.448-1.008s1.76.336 2.4 1.008c.672.64 1.008 1.44 1.008 2.4Z"/><path fill="#E64D4D" d="M18.816 31.968c0 .96-.336 1.776-1.008 2.448-.64.64-1.44.96-2.4.96s-1.776-.32-2.448-.96c-.64-.672-.96-1.488-.96-2.448s.32-1.76.96-2.4c.672-.672 1.488-1.008 2.448-1.008s1.76.336 2.4 1.008c.672.64 1.008 1.44 1.008 2.4Zm0 10.56c0 .96-.336 1.776-1.008 2.448-.64.64-1.44.96-2.4.96s-1.776-.32-2.448-.96c-.64-.672-.96-1.488-.96-2.448s.32-1.76.96-2.4c.672-.672 1.488-1.008 2.448-1.008s1.76.336 2.4 1.008c.672.64 1.008 1.44 1.008 2.4Zm0 10.56c0 .96-.336 1.76-1.008 2.4-.64.672-1.44 1.008-2.4 1.008s-1.776-.336-2.448-1.008c-.64-.64-.96-1.44-.96-2.4s.32-1.776.96-2.448c.672-.64 1.488-.96 2.448-.96s1.76.32 2.4.96c.672.672 1.008 1.488 1.008 2.448ZM18.816 74.408c0 .96-.336 1.776-1.008 2.448-.64.64-1.44.96-2.4.96s-1.776-.32-2.448-.96c-.64-.672-.96-1.488-.96-2.448s.32-1.76.96-2.4c.672-.672 1.488-1.008 2.448-1.008s1.76.336 2.4 1.008c.672.64 1.008 1.44 1.008 2.4Zm0 10.56c0 .96-.336 1.776-1.008 2.448-.64.64-1.44.96-2.4.96s-1.776-.32-2.448-.96c-.64-.672-.96-1.488-.96-2.448s.32-1.76.96-2.4c.672-.672 1.488-1.008 2.448-1.008s1.76.336 2.4 1.008c.672.64 1.008 1.44 1.008 2.4Zm0 10.56c0 .96-.336 1.776-1.008 2.448-.64.64-1.44.96-2.4.96s-1.776-.32-2.448-.96c-.64-.672-.96-1.488-.96-2.448s.32-1.76.96-2.4c.672-.672 1.488-1.008 2.448-1.008s1.76.336 2.4 1.008c.672.64 1.008 1.44 1.008 2.4Z"/><path fill="#E6BF4D" d="M29.376 21.408c0 .96-.336 1.776-1.008 2.448-.64.64-1.44.96-2.4.96s-1.776-.32-2.448-.96c-.64-.672-.96-1.488-.96-2.448s.32-1.76.96-2.4c.672-.672 1.488-1.008 2.448-1.008s1.76.336 2.4 1.008c.672.64 1.008 1.44 1.008 2.4ZM29.376 106.088c0 .96-.336 1.76-1.008 2.4-.64.672-1.44 1.008-2.4 1.008s-1.776-.336-2.448-1.008c-.64-.64-.96-1.44-.96-2.4s.32-1.776.96-2.448c.672-.64 1.488-.96 2.448-.96s1.76.32 2.4.96c.672.672 1.008 1.488 1.008 2.448Z"/><path fill="#4DE673" d="M58.157 74.408c0 .96-.336 1.776-1.008 2.448-.64.64-1.44.96-2.4.96s-1.776-.32-2.448-.96c-.64-.672-.96-1.488-.96-2.448s.32-1.76.96-2.4C52.973 71.336 53.79 71 54.75 71c.96 0 1.76.336 2.4 1.008.672.64 1.007 1.44 1.007 2.4Zm0 10.56c0 .96-.336 1.776-1.008 2.448-.64.64-1.44.96-2.4.96s-1.776-.32-2.448-.96c-.64-.672-.96-1.488-.96-2.448s.32-1.76.96-2.4c.672-.672 1.488-1.008 2.448-1.008s1.76.336 2.4 1.008c.672.64 1.008 1.44 1.008 2.4Zm0 10.56c0 .96-.336 1.776-1.008 2.448-.64.64-1.44.96-2.4.96s-1.776-.32-2.448-.96c-.64-.672-.96-1.488-.96-2.448s.32-1.76.96-2.4c.672-.672 1.488-1.008 2.448-1.008s1.76.336 2.4 1.008c.672.64 1.008 1.44 1.008 2.4Zm0 10.56c0 .96-.336 1.76-1.008 2.4-.64.672-1.44 1.008-2.4 1.008s-1.776-.336-2.448-1.008c-.64-.64-.96-1.44-.96-2.4s.32-1.776.96-2.448c.672-.64 1.488-.96 2.448-.96s1.76.32 2.4.96c.672.672 1.008 1.488 1.008 2.448Z"/><path fill="#99E64D" d="M47.597 74.408c0 .96-.336 1.776-1.008 2.448-.64.64-1.44.96-2.4.96s-1.776-.32-2.448-.96c-.64-.672-.96-1.488-.96-2.448s.32-1.76.96-2.4C42.413 71.336 43.23 71 44.19 71c.96 0 1.76.336 2.4 1.008.672.64 1.007 1.44 1.007 2.4Zm0 10.56c0 .96-.336 1.776-1.008 2.448-.64.64-1.44.96-2.4.96s-1.776-.32-2.448-.96c-.64-.672-.96-1.488-.96-2.448s.32-1.76.96-2.4c.672-.672 1.488-1.008 2.448-1.008s1.76.336 2.4 1.008c.672.64 1.008 1.44 1.008 2.4Zm0 10.56c0 .96-.336 1.776-1.008 2.448-.64.64-1.44.96-2.4.96s-1.776-.32-2.448-.96c-.64-.672-.96-1.488-.96-2.448s.32-1.76.96-2.4c.672-.672 1.488-1.008 2.448-1.008s1.76.336 2.4 1.008c.672.64 1.008 1.44 1.008 2.4Zm0 10.56c0 .96-.336 1.76-1.008 2.4-.64.672-1.44 1.008-2.4 1.008s-1.776-.336-2.448-1.008c-.64-.64-.96-1.44-.96-2.4s.32-1.776.96-2.448c.672-.64 1.488-.96 2.448-.96s1.76.32 2.4.96c.672.672 1.008 1.488 1.008 2.448Z"/><path fill="#4DE6E6" d="M76.379 74.408c0 .96-.337 1.776-1.008 2.448-.64.64-1.44.96-2.4.96s-1.776-.32-2.449-.96c-.64-.672-.96-1.488-.96-2.448s.32-1.76.96-2.4C71.194 71.336 72.01 71 72.97 71s1.76.336 2.4 1.008c.672.64 1.009 1.44 1.009 2.4Zm0 10.56c0 .96-.337 1.776-1.008 2.448-.64.64-1.44.96-2.4.96s-1.776-.32-2.449-.96c-.64-.672-.96-1.488-.96-2.448s.32-1.76.96-2.4c.672-.672 1.488-1.008 2.448-1.008s1.76.336 2.4 1.008c.672.64 1.009 1.44 1.009 2.4Zm0 10.56c0 .96-.337 1.776-1.008 2.448-.64.64-1.44.96-2.4.96s-1.776-.32-2.449-.96c-.64-.672-.96-1.488-.96-2.448s.32-1.76.96-2.4c.672-.672 1.488-1.008 2.448-1.008s1.76.336 2.4 1.008c.672.64 1.009 1.44 1.009 2.4Zm0 10.56c0 .96-.337 1.76-1.008 2.4-.64.672-1.44 1.008-2.4 1.008s-1.776-.336-2.449-1.008c-.64-.64-.96-1.44-.96-2.4s.32-1.776.96-2.448c.672-.64 1.488-.96 2.448-.96s1.76.32 2.4.96c.672.672 1.009 1.488 1.009 2.448Z"/><path fill="#4D73E6" d="M86.939 74.408c0 .96-.336 1.776-1.008 2.448-.64.64-1.44.96-2.4.96s-1.777-.32-2.449-.96c-.64-.672-.96-1.488-.96-2.448s.32-1.76.96-2.4c.672-.672 1.489-1.008 2.449-1.008.96 0 1.76.336 2.4 1.008.672.64 1.008 1.44 1.008 2.4Zm0 10.56c0 .96-.336 1.776-1.008 2.448-.64.64-1.44.96-2.4.96s-1.777-.32-2.449-.96c-.64-.672-.96-1.488-.96-2.448s.32-1.76.96-2.4c.672-.672 1.489-1.008 2.449-1.008.96 0 1.76.336 2.4 1.008.672.64 1.008 1.44 1.008 2.4Zm0 10.56c0 .96-.336 1.776-1.008 2.448-.64.64-1.44.96-2.4.96s-1.777-.32-2.449-.96c-.64-.672-.96-1.488-.96-2.448s.32-1.76.96-2.4c.672-.672 1.489-1.008 2.449-1.008.96 0 1.76.336 2.4 1.008.672.64 1.008 1.44 1.008 2.4Zm0 10.56c0 .96-.336 1.76-1.008 2.4-.64.672-1.44 1.008-2.4 1.008s-1.777-.336-2.449-1.008c-.64-.64-.96-1.44-.96-2.4s.32-1.776.96-2.448c.672-.64 1.489-.96 2.449-.96.96 0 1.76.32 2.4.96.672.672 1.008 1.488 1.008 2.448Z"/><path fill="#E64DBF" d="M115.72 74.408c0 .96-.336 1.776-1.008 2.448-.64.64-1.44.96-2.4.96s-1.776-.32-2.448-.96c-.64-.672-.96-1.488-.96-2.448s.32-1.76.96-2.4c.672-.672 1.488-1.008 2.448-1.008s1.76.336 2.4 1.008c.672.64 1.008 1.44 1.008 2.4Zm0 10.56c0 .96-.336 1.776-1.008 2.448-.64.64-1.44.96-2.4.96s-1.776-.32-2.448-.96c-.64-.672-.96-1.488-.96-2.448s.32-1.76.96-2.4c.672-.672 1.488-1.008 2.448-1.008s1.76.336 2.4 1.008c.672.64 1.008 1.44 1.008 2.4Zm0 10.56c0 .96-.336 1.776-1.008 2.448-.64.64-1.44.96-2.4.96s-1.776-.32-2.448-.96c-.64-.672-.96-1.488-.96-2.448s.32-1.76.96-2.4c.672-.672 1.488-1.008 2.448-1.008s1.76.336 2.4 1.008c.672.64 1.008 1.44 1.008 2.4Z"/><path fill="#994DE6" d="M105.16 106.088c0 .96-.336 1.76-1.008 2.4-.64.672-1.44 1.008-2.4 1.008s-1.776-.336-2.448-1.008c-.64-.64-.96-1.44-.96-2.4s.32-1.776.96-2.448c.672-.64 1.488-.96 2.448-.96s1.76.32 2.4.96c.672.672 1.008 1.488 1.008 2.448Z"/></svg>