<svg xmlns="http://www.w3.org/2000/svg" width="128" height="128" fill="none"><path fill="#000" d="M0 0h128v128H0z"/><path fill="#EEE" d="M113.918 56.624c0 1.28-.448 2.368-1.344 3.264-.853.853-1.92 1.28-3.2 1.28-1.28 0-2.368-.427-3.264-1.28-.853-.896-1.28-1.984-1.28-3.264 0-1.28.427-2.347 1.28-3.2.896-.896 1.984-1.344 3.264-1.344 1.28 0 2.347.448 3.2 1.344.896.853 1.344 1.92 1.344 3.2Zm0 14.08c0 1.28-.448 2.368-1.344 3.264-.853.853-1.92 1.28-3.2 1.28-1.28 0-2.368-.427-3.264-1.28-.853-.896-1.28-1.984-1.28-3.264 0-1.28.427-2.347 1.28-3.2.896-.896 1.984-1.344 3.264-1.344 1.28 0 2.347.448 3.2 1.344.896.853 1.344 1.92 1.344 3.2ZM99.838 42.544c0 1.28-.448 2.368-1.344 3.264-.853.853-1.92 1.28-3.2 1.28-1.28 0-2.368-.427-3.264-1.28-.853-.896-1.28-1.984-1.28-3.264 0-1.28.427-2.347 1.28-3.2.896-.896 1.984-1.344 3.264-1.344 1.28 0 2.347.448 3.2 1.344.896.853 1.344 1.92 1.344 3.2Zm0 42.24c0 1.28-.448 2.347-1.344 3.2-.853.896-1.92 1.344-3.2 1.344-1.28 0-2.368-.448-3.264-1.344-.853-.853-1.28-1.92-1.28-3.2 0-1.28.427-2.368 1.28-3.264.896-.853 1.984-1.28 3.264-1.28 1.28 0 2.347.427 3.2 1.28.896.896 1.344 1.984 1.344 3.264Z"/><path fill="#BBB" d="M75.543 42.544c0 1.28-.448 2.368-1.344 3.264-.853.853-1.92 1.28-3.2 1.28-1.28 0-2.368-.427-3.264-1.28-.853-.896-1.28-1.984-1.28-3.264 0-1.28.427-2.347 1.28-3.2.896-.896 1.984-1.344 3.264-1.344 1.28 0 2.347.448 3.2 1.344.896.853 1.344 1.92 1.344 3.2Zm0 14.08c0 1.28-.448 2.368-1.344 3.264-.853.853-1.92 1.28-3.2 1.28-1.28 0-2.368-.427-3.264-1.28-.853-.896-1.28-1.984-1.28-3.264 0-1.28.427-2.347 1.28-3.2.896-.896 1.984-1.344 3.264-1.344 1.28 0 2.347.448 3.2 1.344.896.853 1.344 1.92 1.344 3.2Zm0 14.08c0 1.28-.448 2.368-1.344 3.264-.853.853-1.92 1.28-3.2 1.28-1.28 0-2.368-.427-3.264-1.28-.853-.896-1.28-1.984-1.28-3.264 0-1.28.427-2.347 1.28-3.2.896-.896 1.984-1.344 3.264-1.344 1.28 0 2.347.448 3.2 1.344.896.853 1.344 1.92 1.344 3.2Zm0 14.08c0 1.28-.448 2.347-1.344 3.2-.853.896-1.92 1.344-3.2 1.344-1.28 0-2.368-.448-3.264-1.344-.853-.853-1.28-1.92-1.28-3.2 0-1.28.427-2.368 1.28-3.264.896-.853 1.984-1.28 3.264-1.28 1.28 0 2.347.427 3.2 1.28.896.896 1.344 1.984 1.344 3.264ZM61.463 42.544c0 1.28-.448 2.368-1.344 3.264-.853.853-1.92 1.28-3.2 1.28-1.28 0-2.368-.427-3.264-1.28-.853-.896-1.28-1.984-1.28-3.264 0-1.28.427-2.347 1.28-3.2.896-.896 1.984-1.344 3.264-1.344 1.28 0 2.347.448 3.2 1.344.896.853 1.344 1.92 1.344 3.2Zm0 14.08c0 1.28-.448 2.368-1.344 3.264-.853.853-1.92 1.28-3.2 1.28-1.28 0-2.368-.427-3.264-1.28-.853-.896-1.28-1.984-1.28-3.264 0-1.28.427-2.347 1.28-3.2.896-.896 1.984-1.344 3.264-1.344 1.28 0 2.347.448 3.2 1.344.896.853 1.344 1.92 1.344 3.2Zm0 14.08c0 1.28-.448 2.368-1.344 3.264-.853.853-1.92 1.28-3.2 1.28-1.28 0-2.368-.427-3.264-1.28-.853-.896-1.28-1.984-1.28-3.264 0-1.28.427-2.347 1.28-3.2.896-.896 1.984-1.344 3.264-1.344 1.28 0 2.347.448 3.2 1.344.896.853 1.344 1.92 1.344 3.2Zm0 14.08c0 1.28-.448 2.347-1.344 3.2-.853.896-1.92 1.344-3.2 1.344-1.28 0-2.368-.448-3.264-1.344-.853-.853-1.28-1.92-1.28-3.2 0-1.28.427-2.368 1.28-3.264.896-.853 1.984-1.28 3.264-1.28 1.28 0 2.347.427 3.2 1.28.896.896 1.344 1.984 1.344 3.264Z"/><path fill="#CCC" d="M37.168 42.544c0 1.28-.448 2.368-1.344 3.264-.853.853-1.92 1.28-3.2 1.28-1.28 0-2.368-.427-3.264-1.28-.853-.896-1.28-1.984-1.28-3.264 0-1.28.427-2.347 1.28-3.2.896-.896 1.984-1.344 3.264-1.344 1.28 0 2.347.448 3.2 1.344.896.853 1.344 1.92 1.344 3.2Zm0 42.24c0 1.28-.448 2.347-1.344 3.2-.853.896-1.92 1.344-3.2 1.344-1.28 0-2.368-.448-3.264-1.344-.853-.853-1.28-1.92-1.28-3.2 0-1.28.427-2.368 1.28-3.264.896-.853 1.984-1.28 3.264-1.28 1.28 0 2.347.427 3.2 1.28.896.896 1.344 1.984 1.344 3.264ZM23.088 56.624c0 1.28-.448 2.368-1.344 3.264-.853.853-1.92 1.28-3.2 1.28-1.28 0-2.368-.427-3.264-1.28-.853-.896-1.28-1.984-1.28-3.264 0-1.28.427-2.347 1.28-3.2.896-.896 1.984-1.344 3.264-1.344 1.28 0 2.347.448 3.2 1.344.896.853 1.344 1.92 1.344 3.2Zm0 14.08c0 1.28-.448 2.368-1.344 3.264-.853.853-1.92 1.28-3.2 1.28-1.28 0-2.368-.427-3.264-1.28-.853-.896-1.28-1.984-1.28-3.264 0-1.28.427-2.347 1.28-3.2.896-.896 1.984-1.344 3.264-1.344 1.28 0 2.347.448 3.2 1.344.896.853 1.344 1.92 1.344 3.2Z"/></svg>